<?xml version="1.0" standalone="no"?>
<!DOCTYPE svg PUBLIC "-//W3C//DTD SVG 20010904//EN"
 "http://www.w3.org/TR/2001/REC-SVG-20010904/DTD/svg10.dtd">
<svg version="1.0" xmlns="http://www.w3.org/2000/svg"
 width="4166.000000pt" height="2160.000000pt" viewBox="0 0 4166.000000 2160.000000"
 preserveAspectRatio="xMidYMid meet">

<g transform="translate(0.000000,2160.000000) scale(0.100000,-0.100000)"
fill="#000000" stroke="none">
<path d="M29945 20792 c-51 -35 -96 -126 -131 -265 -25 -101 -101 -324 -131
-381 -8 -16 -23 -52 -33 -80 -26 -72 -53 -139 -90 -226 -17 -41 -46 -131 -65
-200 -27 -102 -195 -553 -261 -700 -34 -76 -66 -169 -95 -279 -17 -64 -46
-154 -65 -201 -19 -47 -46 -112 -59 -145 -75 -194 -106 -272 -115 -290 -24
-52 -42 -105 -71 -213 -29 -108 -66 -219 -89 -267 -5 -11 -30 -74 -56 -140
-25 -66 -61 -156 -79 -200 -18 -44 -45 -114 -60 -155 -15 -41 -31 -83 -36 -92
-4 -9 -22 -72 -39 -140 -17 -68 -37 -132 -45 -144 -7 -11 -18 -36 -24 -55 -5
-19 -38 -101 -71 -184 -117 -285 -141 -350 -174 -480 -15 -55 -37 -127 -51
-160 -13 -33 -36 -91 -51 -130 -14 -38 -35 -88 -44 -110 -59 -133 -160 -405
-160 -429 0 -22 -50 -188 -69 -231 -37 -81 -49 -111 -64 -155 -9 -25 -28 -72
-42 -105 -29 -64 -105 -254 -137 -345 -11 -30 -30 -95 -43 -145 -13 -49 -35
-121 -50 -160 -80 -212 -151 -390 -184 -460 -15 -33 -49 -134 -75 -225 -45
-159 -59 -201 -131 -375 -18 -44 -52 -129 -75 -190 -23 -60 -55 -138 -71 -172
-30 -67 -38 -91 -76 -238 -14 -55 -29 -104 -33 -110 -4 -5 -13 -28 -20 -50
-20 -64 -162 -419 -215 -540 -7 -16 -27 -84 -44 -151 -16 -66 -44 -156 -62
-200 -17 -43 -49 -124 -71 -179 -21 -55 -44 -111 -50 -125 -6 -14 -19 -45 -28
-70 -10 -25 -40 -106 -69 -180 -28 -74 -63 -180 -77 -234 -14 -55 -45 -147
-69 -205 -172 -421 -211 -526 -249 -676 -14 -56 -38 -132 -54 -170 -60 -144
-93 -224 -142 -350 -28 -71 -61 -152 -74 -180 -13 -27 -38 -105 -55 -173 -18
-68 -52 -175 -76 -238 -25 -62 -56 -144 -70 -181 -14 -36 -30 -72 -35 -78 -6
-7 -20 -45 -33 -86 -13 -41 -32 -90 -42 -109 -20 -40 -65 -174 -65 -199 -1 -9
-18 -65 -39 -126 -38 -110 -61 -167 -183 -470 -35 -88 -72 -189 -82 -225 -30
-115 -58 -204 -81 -260 -13 -30 -33 -82 -46 -115 -51 -136 -102 -251 -120
-270 -19 -20 -36 -20 -1672 -25 -908 -3 -1662 -2 -1675 2 -18 6 -28 2 -47 -20
-29 -32 -31 -48 -9 -56 9 -3 784 -6 1724 -6 1612 0 1709 1 1727 18 11 9 30 44
42 77 12 33 33 87 47 120 13 33 28 74 33 90 5 17 23 66 39 110 69 183 85 225
119 325 20 58 40 110 44 115 4 6 12 29 18 50 13 53 46 148 62 177 7 13 31 77
55 143 70 201 84 239 94 260 9 19 38 100 119 335 20 58 41 111 45 119 5 8 21
48 36 90 37 105 109 304 158 436 22 61 46 126 52 145 7 19 26 71 42 115 17 44
37 100 46 125 58 165 87 243 109 300 25 63 58 154 148 405 23 66 57 158 74
205 18 47 43 117 56 155 23 69 43 121 70 180 7 17 27 71 44 120 16 50 48 140
69 200 22 61 60 166 85 235 24 69 56 152 70 185 13 33 41 108 61 167 20 59 46
129 57 155 12 26 27 68 34 93 8 25 25 74 38 110 14 36 30 81 37 100 7 19 21
54 31 78 11 23 19 49 19 56 0 8 22 69 50 137 27 68 50 130 50 137 0 7 20 64
45 126 25 63 45 120 45 128 0 7 6 24 13 38 7 14 28 68 46 120 18 52 40 109 47
127 8 17 14 34 14 38 0 4 11 34 24 68 13 34 39 103 56 152 35 97 73 198 95
255 7 19 46 127 85 240 40 113 80 223 90 245 10 22 25 63 35 90 10 28 32 91
50 140 18 50 55 153 83 230 27 77 62 172 77 210 15 39 36 95 45 125 10 30 30
87 45 125 15 39 38 100 50 136 24 70 101 280 116 314 4 11 17 45 27 75 11 30
38 107 62 170 23 63 64 176 90 250 26 74 53 149 60 165 25 63 83 219 165 450
23 66 52 145 65 175 12 30 40 109 62 175 22 66 47 133 55 148 8 16 32 79 53
141 21 61 57 163 81 226 23 63 59 162 79 220 21 58 57 155 80 215 23 61 48
128 55 150 8 22 26 72 40 110 14 39 41 115 60 170 19 55 39 108 45 118 6 9 23
57 39 105 38 114 98 279 115 317 8 17 27 68 42 115 14 47 30 90 35 95 4 6 25
62 47 125 36 107 71 204 158 440 98 265 171 467 234 640 21 58 57 155 80 215
23 61 48 130 55 155 8 25 25 74 40 110 14 36 43 115 65 175 21 61 52 144 68
186 37 96 46 139 29 139 -6 -1 -30 -13 -52 -28z"/>
<path d="M15541 14822 c-8 -3 -25 -17 -37 -32 -13 -15 -51 -42 -85 -60 -58
-31 -71 -34 -203 -42 -567 -36 -919 -74 -1196 -129 -52 -11 -153 -31 -223 -44
-70 -14 -135 -29 -145 -34 -9 -5 -64 -19 -122 -31 -58 -13 -130 -31 -160 -42
-30 -11 -116 -37 -190 -59 -74 -21 -164 -52 -200 -68 -36 -17 -96 -42 -135
-56 -117 -43 -149 -58 -171 -77 -11 -10 -24 -18 -28 -18 -25 0 -279 -138 -346
-189 -45 -33 -85 -61 -89 -61 -15 0 -202 -148 -234 -185 -17 -21 -59 -58 -92
-84 -33 -25 -68 -54 -77 -63 -21 -21 -44 -15 -51 13 -7 28 -24 23 -42 -11 -9
-16 -20 -30 -25 -30 -5 0 -28 -28 -51 -62 -24 -35 -46 -65 -49 -68 -6 -5 -80
-157 -80 -165 0 -2 -16 -30 -35 -63 -31 -52 -88 -195 -131 -332 -18 -56 -52
-145 -70 -185 -8 -16 -27 -68 -43 -115 -16 -47 -57 -161 -91 -255 -34 -93 -66
-186 -72 -205 -6 -19 -14 -39 -18 -45 -4 -5 -17 -39 -28 -75 -30 -94 -51 -152
-63 -173 -5 -10 -27 -70 -49 -132 -21 -63 -41 -119 -45 -125 -8 -13 -110 -297
-171 -475 -24 -71 -50 -143 -58 -160 -17 -36 -106 -278 -106 -289 0 -4 -6 -22
-14 -39 -23 -52 -92 -243 -136 -376 -23 -68 -48 -138 -57 -155 -9 -17 -20 -44
-24 -61 -9 -35 -54 -157 -74 -200 -14 -30 -49 -130 -155 -437 -31 -92 -62
-173 -68 -180 -5 -7 -13 -29 -17 -48 -4 -19 -11 -39 -15 -45 -4 -5 -16 -37
-28 -70 -11 -33 -32 -91 -47 -130 -15 -38 -33 -88 -40 -110 -28 -85 -156 -441
-165 -460 -5 -11 -17 -40 -25 -65 -9 -25 -27 -74 -40 -110 -13 -36 -44 -121
-69 -190 -25 -69 -70 -195 -101 -280 -31 -85 -70 -191 -86 -235 -39 -108 -88
-241 -106 -290 -16 -41 -27 -71 -156 -435 -42 -118 -81 -224 -87 -235 -17 -34
-50 -137 -50 -157 0 -17 42 -18 1203 -20 2310 -5 2234 -6 2256 17 11 11 35 65
54 120 19 55 49 138 67 185 17 47 36 101 42 120 5 19 13 40 18 45 4 6 17 37
28 70 12 33 33 92 47 130 14 39 37 99 49 135 34 94 140 383 171 465 15 39 46
124 70 190 24 66 55 152 70 190 14 39 32 88 40 110 7 22 28 78 45 125 17 47
40 110 51 140 10 30 23 64 28 75 18 42 54 137 67 178 7 23 36 103 64 177 28
74 67 180 87 235 52 145 87 241 117 320 15 39 35 95 45 125 11 30 33 91 51
135 17 44 35 94 40 110 5 17 25 73 45 125 20 52 52 138 70 190 19 52 46 127
60 165 15 39 33 90 42 115 8 25 19 54 24 65 9 20 23 58 104 280 45 126 111
305 152 415 14 36 29 83 35 105 6 22 15 45 20 51 4 6 19 42 33 80 80 230 115
327 122 337 4 7 24 59 44 117 20 58 49 137 64 175 14 39 32 88 40 110 8 22 27
76 43 120 16 44 50 137 75 207 25 70 49 133 52 139 4 6 24 59 45 117 42 120
102 285 149 412 33 89 87 235 150 410 21 58 53 143 70 190 18 47 38 103 46
125 7 22 28 78 45 125 18 47 49 132 70 190 42 116 91 249 152 410 59 159 108
307 108 329 0 11 8 24 18 30 20 11 5 32 -17 23z m-3801 -1322 c0 -5 -4 -10
-10 -10 -5 0 -10 5 -10 10 0 6 5 10 10 10 6 0 10 -4 10 -10z"/>
<path d="M19592 14823 c-7 -3 -19 -18 -27 -33 -9 -18 -37 -40 -76 -59 l-62
-31 -1608 0 -1609 0 -31 28 c-24 21 -32 37 -31 60 0 18 -4 32 -9 32 -5 0 -9
-7 -9 -16 0 -9 -9 -28 -19 -43 -21 -29 -49 -105 -138 -366 -30 -88 -58 -164
-63 -170 -4 -5 -13 -26 -18 -45 -19 -62 -90 -258 -102 -280 -6 -12 -18 -45
-27 -73 -8 -29 -32 -97 -52 -152 -47 -126 -57 -154 -86 -240 -13 -38 -33 -95
-45 -125 -22 -55 -80 -214 -139 -385 -17 -49 -36 -99 -41 -110 -10 -20 -43
-114 -81 -230 -11 -33 -35 -98 -54 -145 -18 -47 -48 -125 -66 -175 -17 -49
-51 -144 -74 -210 -24 -66 -70 -196 -103 -290 -32 -93 -71 -197 -84 -230 -14
-33 -36 -91 -48 -130 -13 -38 -30 -86 -38 -105 -17 -38 -84 -228 -107 -300 -8
-25 -35 -101 -60 -170 -25 -69 -50 -138 -55 -153 -5 -16 -13 -34 -18 -40 -5
-7 -14 -30 -19 -52 -6 -22 -23 -71 -37 -110 -15 -38 -42 -115 -61 -170 -19
-55 -41 -114 -49 -130 -9 -17 -16 -37 -16 -45 0 -9 -21 -70 -46 -135 -25 -66
-64 -172 -86 -235 -22 -63 -52 -146 -68 -185 -15 -38 -41 -110 -58 -160 -44
-131 -126 -359 -157 -440 -15 -38 -34 -90 -42 -115 -18 -54 -52 -147 -64 -175
-5 -11 -17 -47 -28 -80 -10 -33 -29 -85 -41 -115 -12 -30 -30 -82 -41 -115
-17 -56 -30 -91 -95 -262 -14 -38 -34 -94 -44 -126 -10 -31 -34 -97 -53 -145
-18 -48 -39 -105 -46 -127 -11 -37 -65 -190 -96 -275 -7 -19 -30 -82 -50 -140
-20 -58 -41 -113 -46 -123 -5 -9 -20 -50 -33 -90 -13 -39 -34 -97 -46 -127
-12 -30 -25 -68 -30 -85 -4 -16 -22 -68 -40 -115 -17 -47 -40 -110 -50 -140
-28 -85 -96 -263 -109 -287 -16 -30 -14 -60 5 -67 9 -3 782 -6 1719 -6 1350 0
1705 3 1713 13 10 12 38 83 89 222 14 39 32 86 40 105 8 19 21 53 29 75 18 56
58 167 89 250 43 117 65 177 85 235 27 78 108 299 171 465 39 101 98 265 207
570 21 61 44 119 49 130 6 11 27 67 46 125 20 58 48 137 63 175 14 39 45 124
69 190 23 66 55 152 69 190 15 39 38 99 51 135 13 36 40 110 60 165 21 55 57
154 80 220 67 186 155 426 256 700 16 44 55 150 85 235 31 85 64 175 74 200
10 25 32 88 50 140 17 52 38 109 46 126 8 18 25 63 38 100 28 81 96 265 126
344 12 30 27 73 35 95 7 22 27 78 45 125 17 47 53 146 80 220 26 74 83 230
125 345 43 116 94 257 115 315 21 58 72 200 115 315 43 116 92 251 110 300 18
50 52 142 75 205 24 63 62 169 86 235 23 66 64 176 89 245 26 69 53 143 60
165 8 22 41 114 75 205 34 91 77 208 95 260 18 52 55 156 83 230 69 188 73
209 34 193z"/>
<path d="M28423 14738 c-6 -7 -13 -22 -16 -33 -3 -11 -17 -51 -32 -90 -15 -38
-46 -124 -70 -190 -24 -66 -60 -160 -80 -210 -20 -49 -45 -119 -57 -155 -11
-35 -31 -89 -45 -120 -14 -30 -32 -77 -40 -105 -8 -27 -39 -113 -68 -190 -29
-77 -70 -187 -91 -245 -20 -58 -40 -109 -45 -115 -4 -5 -14 -32 -22 -60 -8
-27 -30 -90 -50 -140 -69 -179 -203 -545 -259 -705 -16 -46 -35 -98 -43 -115
-7 -16 -27 -68 -44 -115 -55 -153 -82 -225 -95 -255 -8 -16 -26 -66 -41 -110
-15 -44 -40 -109 -55 -146 -15 -36 -35 -92 -44 -125 -17 -57 -57 -167 -76
-209 -6 -11 -17 -40 -26 -65 -9 -25 -29 -79 -44 -120 -15 -41 -48 -131 -73
-200 -25 -69 -67 -181 -92 -250 -26 -69 -53 -145 -60 -170 -8 -25 -28 -79 -45
-120 -17 -41 -40 -99 -50 -130 -11 -30 -42 -116 -70 -190 -79 -208 -148 -402
-156 -435 -4 -16 -13 -41 -20 -55 -14 -26 -32 -73 -65 -174 -11 -33 -24 -65
-29 -71 -5 -6 -27 -63 -49 -126 -21 -63 -64 -180 -94 -261 -30 -80 -58 -161
-62 -180 -4 -18 -13 -40 -20 -48 -7 -8 -17 -33 -23 -55 -18 -66 -62 -187 -71
-199 -5 -6 -14 -27 -20 -46 -5 -19 -24 -73 -41 -120 -18 -47 -38 -105 -46
-130 -8 -25 -19 -54 -25 -66 -14 -28 -57 -150 -70 -198 -5 -21 -16 -48 -24
-60 -8 -11 -15 -30 -15 -41 0 -11 -11 -42 -25 -70 -13 -27 -25 -58 -25 -67 0
-10 -9 -37 -19 -60 -30 -69 -71 -177 -71 -190 0 -6 -9 -30 -19 -52 -11 -23
-24 -57 -30 -76 -11 -39 -53 -155 -98 -275 -17 -44 -40 -114 -53 -155 -12 -41
-30 -91 -40 -110 -10 -19 -22 -51 -28 -70 -6 -19 -25 -73 -42 -120 -18 -47
-38 -105 -46 -129 -8 -25 -20 -54 -28 -65 -21 -33 -27 -73 -13 -84 8 -7 590
-10 1745 -9 l1734 0 23 37 c13 20 30 59 39 86 8 27 27 81 41 119 15 39 37 99
50 135 12 36 35 97 49 135 15 39 33 88 41 110 8 22 28 78 45 125 17 47 35 99
40 115 4 17 17 53 28 80 32 79 112 296 154 415 10 30 25 69 32 85 13 29 21 50
54 145 39 112 55 157 69 190 9 19 22 55 29 80 7 25 25 77 40 115 49 129 75
200 93 255 10 30 23 64 29 75 6 11 17 40 25 65 8 25 27 77 42 115 14 39 32 90
39 115 7 25 18 54 24 65 6 11 17 40 25 65 8 25 27 77 42 115 14 39 33 90 41
115 8 25 18 54 24 65 5 11 19 45 29 75 10 30 31 87 46 125 14 39 32 92 40 118
7 27 20 58 28 70 8 12 18 38 22 57 4 19 11 41 16 50 5 8 25 64 44 124 20 60
41 118 46 128 6 11 28 68 49 126 21 59 50 139 65 177 14 39 37 99 49 135 13
36 29 81 36 100 7 19 21 58 30 85 34 98 42 121 66 185 14 36 31 83 39 105 7
22 30 83 49 135 20 52 53 142 73 200 20 58 39 110 43 115 5 6 15 33 24 60 8
28 27 82 41 120 15 39 35 95 45 125 10 30 31 87 45 125 29 78 54 147 114 313
22 62 43 117 47 123 3 6 35 92 69 192 35 100 73 207 85 237 12 30 30 80 40
110 10 30 44 123 75 205 134 357 150 422 148 585 -2 179 -28 261 -133 428 -18
28 -37 52 -41 52 -5 0 -9 6 -9 13 0 6 -28 39 -62 72 -69 66 -87 60 -45 -14 36
-63 19 -124 -19 -66 -9 14 -21 25 -26 25 -6 0 -27 14 -47 30 -20 17 -42 35
-49 41 -7 6 -48 30 -90 54 -42 24 -86 52 -98 63 -29 28 -65 45 -190 92 -60 22
-131 51 -159 64 -45 20 -95 36 -220 68 -22 5 -65 18 -95 28 -30 10 -82 23
-115 29 -203 36 -309 53 -427 66 -73 9 -158 20 -188 25 -71 12 -391 29 -692
37 -236 6 -238 6 -253 29 -17 27 -28 30 -42 12z"/>
<path d="M23620 14701 c-43 -25 -47 -32 -73 -116 -24 -76 -190 -511 -233 -610
-56 -130 -98 -253 -114 -332 -11 -53 -79 -238 -150 -408 -83 -199 -134 -339
-161 -444 -16 -64 -66 -206 -111 -316 -44 -110 -93 -235 -109 -277 -15 -42
-41 -105 -58 -140 -16 -35 -40 -108 -54 -163 -37 -147 -86 -290 -137 -400 -5
-11 -27 -67 -49 -125 -21 -58 -53 -134 -70 -170 -16 -36 -46 -124 -65 -195
-45 -167 -53 -191 -211 -580 -97 -240 -118 -300 -145 -404 -18 -74 -87 -269
-125 -356 -18 -41 -59 -144 -96 -240 -17 -44 -41 -107 -54 -140 -13 -33 -33
-103 -46 -155 -21 -90 -54 -181 -113 -314 -14 -32 -26 -63 -26 -68 0 -5 -24
-67 -54 -136 -64 -152 -88 -221 -115 -327 -28 -112 -145 -421 -265 -705 -28
-65 -67 -184 -95 -295 -20 -74 -69 -207 -141 -380 -94 -224 -148 -376 -175
-495 -10 -41 -29 -100 -42 -130 -13 -30 -36 -84 -49 -120 -82 -209 -178 -449
-189 -471 -8 -14 -23 -63 -35 -110 -23 -92 -75 -257 -95 -304 -8 -16 -29 -70
-49 -120 -19 -49 -60 -151 -92 -225 -31 -74 -69 -183 -84 -242 -28 -111 -84
-274 -125 -368 -13 -30 -45 -109 -70 -175 -26 -66 -58 -144 -71 -173 -27 -58
-88 -239 -99 -293 -12 -57 -72 -229 -125 -354 -27 -64 -148 -374 -170 -435 -5
-14 -19 -65 -30 -115 -12 -49 -28 -103 -36 -120 -15 -34 -84 -208 -120 -303
-14 -35 -33 -84 -44 -108 -29 -62 -97 -244 -131 -348 -15 -48 -41 -109 -55
-135 -40 -68 -148 -207 -304 -393 -17 -20 -79 -73 -138 -117 -59 -44 -126 -96
-148 -117 -37 -33 -272 -170 -409 -238 -48 -24 -154 -69 -315 -135 -103 -41
-304 -106 -425 -136 -55 -14 -120 -32 -145 -40 -25 -8 -83 -21 -130 -30 -47
-9 -132 -27 -190 -40 -58 -13 -159 -31 -225 -40 -66 -9 -122 -18 -125 -20 -3
-2 -39 -6 -80 -10 -41 -4 -85 -11 -98 -16 -13 -5 -51 -9 -85 -9 -34 0 -107 -7
-162 -15 -55 -8 -139 -15 -187 -15 -47 0 -169 -7 -270 -15 -100 -8 -242 -16
-315 -18 -148 -4 -166 -11 -161 -61 l3 -31 110 -7 c61 -4 166 -5 235 -2 144 5
641 48 810 69 225 28 276 35 325 44 536 105 585 116 631 138 21 11 91 30 154
42 189 38 325 85 585 205 61 27 153 72 205 100 87 45 142 81 436 281 56 39
126 97 156 130 29 33 80 89 113 123 33 35 64 71 69 80 5 10 25 33 44 52 19 19
43 53 54 75 11 22 33 63 49 90 46 81 67 134 229 590 22 61 57 160 80 220 22
61 55 151 72 200 17 50 34 95 38 100 4 6 22 55 40 110 18 55 39 111 46 125 8
14 27 66 43 115 16 50 48 140 71 200 22 61 56 153 75 205 18 52 57 158 85 235
28 77 69 190 91 250 22 61 51 139 64 175 13 36 44 121 69 190 25 69 58 161 74
205 17 44 55 148 85 230 30 83 71 195 92 250 20 55 42 120 50 145 7 25 23 70
35 100 24 58 93 245 165 447 24 67 55 150 69 185 14 34 41 113 61 173 19 61
40 119 46 129 6 11 28 69 50 130 36 105 50 144 136 376 19 52 46 129 59 170
14 41 37 104 51 140 15 36 41 106 59 155 74 207 153 422 164 450 7 17 36 98
65 180 63 178 135 379 165 455 12 30 37 100 57 155 19 55 39 108 45 118 5 10
15 40 23 65 7 26 29 92 50 147 20 55 43 118 50 140 8 22 28 76 45 120 43 110
114 306 165 455 24 69 55 157 70 195 14 39 30 81 35 95 5 14 25 68 45 120 20
52 56 149 79 215 24 66 76 208 115 315 40 107 76 209 81 225 10 33 57 161 90
245 12 30 32 84 44 120 13 36 42 117 65 180 23 63 62 171 86 240 43 122 67
189 120 328 15 37 32 87 39 112 7 25 21 60 30 79 10 19 31 73 46 120 15 47 44
127 63 176 19 50 40 106 46 125 22 77 70 212 79 223 5 7 19 44 32 82 24 72 52
151 89 244 11 29 21 59 21 65 0 6 6 23 14 38 8 14 32 79 55 145 22 65 54 156
71 203 17 47 49 135 71 195 23 61 60 164 83 230 23 66 54 149 69 185 32 79 97
273 97 289 0 6 8 23 17 38 20 30 50 110 65 173 6 25 17 54 24 65 14 22 44 111
44 133 0 17 -8 15 -60 -17z"/>
<path d="M31075 14230 c3 -5 10 -10 16 -10 5 0 9 5 9 10 0 6 -7 10 -16 10 -8
0 -12 -4 -9 -10z"/>
<path d="M11960 13819 c0 -5 5 -7 10 -4 6 3 10 8 10 11 0 2 -4 4 -10 4 -5 0
-10 -5 -10 -11z"/>
<path d="M11900 13764 c0 -14 3 -14 15 -4 8 7 15 14 15 16 0 2 -7 4 -15 4 -8
0 -15 -7 -15 -16z"/>
<path d="M11867 13733 c-4 -3 -7 -11 -7 -17 0 -6 5 -5 12 2 6 6 9 14 7 17 -3
3 -9 2 -12 -2z"/>
<path d="M11770 13605 c0 -16 16 -20 24 -6 3 5 -1 11 -9 15 -9 3 -15 0 -15 -9z"/>
</g>
</svg>
